<?xml version="1.0" standalone="no"?>
<!DOCTYPE svg PUBLIC "-//W3C//DTD SVG 20010904//EN"
 "http://www.w3.org/TR/2001/REC-SVG-20010904/DTD/svg10.dtd">
<svg version="1.0" xmlns="http://www.w3.org/2000/svg"
 width="260.000000pt" height="260.000000pt" viewBox="0 0 260.000000 260.000000"
 preserveAspectRatio="xMidYMid meet">
<metadata>
Created by potrace 1.14, written by Peter Selinger 2001-2017
</metadata>
<g transform="translate(0.000000,260.000000) scale(0.100000,-0.100000)"
fill="#000000" stroke="none">
<path d="M0 1300 l0 -1300 1300 0 1300 0 0 1300 0 1300 -1300 0 -1300 0 0
-1300z m1078 458 c18 -5 46 -23 62 -38 16 -15 37 -34 47 -41 51 -38 93 -143
93 -235 0 -70 -35 -274 -61 -352 -20 -60 -22 -62 -55 -62 -24 0 -34 -5 -34
-15 0 -8 4 -15 10 -15 18 0 -3 -31 -31 -45 -15 -8 -31 -15 -35 -15 -9 0 5 73
17 84 12 13 12 29 -1 21 -13 -8 -71 -122 -68 -132 1 -5 20 -21 42 -37 l40 -29
-67 -63 c-108 -100 -166 -134 -250 -146 -181 -26 -529 26 -615 91 l-23 17 21
70 c12 38 39 112 60 165 22 52 64 165 96 250 83 227 178 397 263 473 36 32
111 46 186 34 62 -10 66 -10 102 15 34 23 45 25 103 21 36 -3 80 -10 98 -16z
m692 -21 c52 -7 123 -10 185 -6 55 4 147 8 204 9 103 2 105 2 128 -24 13 -15
23 -34 23 -43 0 -8 14 -28 31 -44 26 -24 30 -34 24 -57 -4 -15 -9 -54 -10 -88
-1 -50 -8 -73 -39 -128 -21 -37 -35 -74 -32 -82 10 -26 -13 -55 -157 -196
-128 -127 -179 -171 -131 -116 l19 22 -35 -22 c-44 -26 -58 -48 -43 -63 17
-17 81 -28 159 -29 62 0 75 -3 99 -25 21 -21 26 -31 20 -53 -10 -41 -72 -138
-106 -167 -30 -25 -34 -25 -123 -19 -54 4 -97 12 -107 20 -18 16 -80 19 -95 5
-5 -6 -29 3 -64 25 -30 19 -64 34 -77 34 -12 0 -45 -14 -73 -31 -36 -22 -58
-30 -78 -26 -18 4 -46 -3 -81 -20 l-53 -26 -19 24 c-29 37 -25 105 11 175 22
44 65 95 175 204 81 80 170 173 198 208 28 34 54 62 57 62 4 0 67 64 140 141
103 110 129 144 118 150 -18 10 -86 -7 -109 -27 -13 -12 -23 -12 -65 0 -58 17
-101 15 -134 -7 -38 -25 -104 -12 -136 26 -22 26 -25 37 -20 71 10 57 35 105
65 121 32 17 27 17 131 2z"/>
<path d="M818 1513 c-23 -27 -53 -90 -94 -200 -21 -54 -47 -114 -60 -133 -12
-19 -25 -51 -29 -70 -4 -19 -21 -54 -38 -77 -19 -27 -30 -55 -31 -80 l-1 -38
95 -17 c55 -11 117 -16 148 -13 35 4 52 1 52 -6 0 -8 4 -8 13 -2 20 16 89 24
104 11 10 -8 13 -7 13 4 0 21 -42 38 -64 26 -28 -16 -28 -4 -1 57 14 32 25 64
25 72 0 24 -25 8 -28 -18 -4 -26 -29 -59 -45 -59 -11 0 -1 78 12 95 10 12 39
136 52 220 5 33 12 75 15 92 4 18 3 48 0 66 -5 28 -15 37 -61 60 -31 15 -57
27 -59 27 -1 0 -10 -8 -18 -17z"/>
<path d="M960 1510 c8 -5 22 -9 30 -9 10 0 8 3 -5 9 -27 12 -43 12 -25 0z"/>
<path d="M685 1360 c-3 -5 -1 -10 4 -10 6 0 11 5 11 10 0 6 -2 10 -4 10 -3 0
-8 -4 -11 -10z"/>
<path d="M967 993 c-4 -3 -7 -11 -7 -17 0 -6 5 -5 12 2 6 6 9 14 7 17 -3 3 -9
2 -12 -2z"/>
<path d="M1910 970 c0 -5 5 -10 10 -10 6 0 10 5 10 10 0 6 -4 10 -10 10 -5 0
-10 -4 -10 -10z"/>
<path d="M1550 694 c0 -14 3 -14 15 -4 8 7 15 14 15 16 0 2 -7 4 -15 4 -8 0
-15 -7 -15 -16z"/>
</g>
</svg>
